<svg id="Capa_1" enable-background="new 0 0 512 512" height="512" viewBox="0 0 512 512" xmlns="http://www.w3.org/2000/svg"><g><path d="m248.641 295.565c10.504-10.504 10.504-27.594 0-38.098-10.503-10.503-27.594-10.504-38.098 0s-10.504 27.595 0 38.098c10.504 10.504 27.595 10.504 38.098 0zm-27.49-27.491c4.655-4.654 12.227-4.654 16.882 0 4.654 4.655 4.654 12.228 0 16.883-4.655 4.655-12.228 4.654-16.882 0-4.654-4.655-4.654-12.228 0-16.883z"/><path d="m175.468 332.563c13.133-13.133 13.133-34.502 0-47.636-13.133-13.133-34.503-13.133-47.636 0s-13.133 34.503 0 47.636c13.163 13.163 34.471 13.165 47.636 0zm-37.028-37.028c7.283-7.283 19.136-7.284 26.42 0s7.284 19.136 0 26.42c-7.301 7.301-19.118 7.302-26.42 0-7.284-7.284-7.283-19.136 0-26.42z"/><path d="m56.13 334.278-7.315 7.315c-2.93 2.93-2.93 7.679 0 10.608 2.929 2.929 7.679 2.93 10.608 0l7.315-7.315c2.93-2.929 2.93-7.679 0-10.608-2.929-2.929-7.679-2.93-10.608 0z"/><path d="m135.564 428.343 7.316-7.316c2.93-2.93 2.93-7.679 0-10.608-2.929-2.929-7.678-2.929-10.608 0l-7.316 7.315c-2.93 2.93-2.93 7.679 0 10.608 2.93 2.93 7.678 2.929 10.608.001z"/><path d="m82.885 367.23c-4.13-.283-7.714 2.835-7.998 6.969-1.1 15.998 12.197 29.174 28.071 28.072 4.133-.283 7.253-3.864 6.97-7.997-.284-4.133-3.866-7.25-7.997-6.97-6.848.478-12.55-5.197-12.077-12.076.284-4.133-2.836-7.714-6.969-7.998z"/><path d="m398.302 42.773-13.687 13.687c-2.93 2.93-2.93 7.678 0 10.608 2.929 2.93 7.679 2.93 10.608 0l13.688-13.688c1.987-1.987 4.629-3.081 7.44-3.082h75.853c2.644 0 4.795 2.151 4.795 4.795v11.456c0 2.643-2.151 4.794-4.794 4.795h-68.387c-1.989 0-3.897.79-5.304 2.197l-49.687 49.687-14.882-14.882 20.333-20.333c2.93-2.929 2.93-7.679 0-10.608-2.929-2.93-7.679-2.929-10.608 0l-20.335 20.335c-.775-.537-10.303-12.676-28.506-12.676-25.322 0-43.665 24.198-36.77 48.645-7.229 9.852-13.653 25.786-33.592 39.181-.002.001-.004.003-.006.005-1.128.55-17.467 13.127-42.859 13.989-25.976.863-47.616 9.229-62.58 24.193-9.804 9.804-17.869 20.668-23.968 32.28-9.363 17.782-25.892 30.967-45.345 36.171-18.605 4.969-35.322 14.772-49.686 29.137-26.874 26.874-26.672 70.804.452 97.927l50.09 50.09c10.912 10.912 25.356 18.001 40.67 19.96.323.042.644.061.961.061 3.719 0 6.947-2.764 7.431-6.55.525-4.109-2.379-7.866-6.489-8.392-12.037-1.54-23.39-7.112-31.966-15.687l-50.09-50.09c-21.274-21.274-21.477-55.686-.452-76.711 12.476-12.476 26.926-20.971 42.953-25.252 23.485-6.284 43.439-22.202 54.749-43.682 5.398-10.281 12.564-19.921 21.297-28.654 15.444-15.444 37.058-19.296 52.477-19.808 15.993-.544 31.589-5.096 45.469-13.228l40.926 40.927c-8.134 13.894-12.686 29.494-13.223 45.48-.927 27.924-11.283 43.947-19.808 52.471-8.735 8.734-18.375 15.9-28.661 21.301-21.473 11.306-37.392 31.26-43.676 54.747-4.447 16.638-13.94 32.403-26.73 44.391-5.177 4.853-11.165 8.548-17.795 10.982-3.889 1.427-5.884 5.737-4.457 9.626s5.738 5.883 9.626 4.457c8.531-3.131 16.231-7.882 22.886-14.119 14.806-13.879 25.803-32.155 30.963-51.461 5.206-19.456 18.39-35.985 36.165-45.344 11.619-6.101 22.482-14.167 32.287-23.972 14.965-14.965 23.331-36.605 24.193-62.578.512-15.221 5.347-30.045 13.983-42.867 0-.001.001-.001.001-.002 13.438-19.968 29.129-26.207 39.192-33.59 12.99 3.664 27.337.367 37.452-9.748 14.899-14.9 14.899-39.144 0-54.044l-1.468-1.468 47.49-47.49h65.281c10.918-.002 19.798-8.883 19.798-19.798v-11.456c0-10.916-8.88-19.797-19.796-19.797h-75.854c-6.818 0-13.228 2.656-18.048 7.476zm-69.783 148.143c-5.05 3.678-18.312 10.102-31.33 26.13l-37.081-37.081c15.966-12.956 22.464-26.291 26.134-31.327 1.253 1.418 26.65 26.713 40.616 40.71v.001c.494.493 1.205 1.16 1.661 1.567zm41.775-12.175c-7.2 7.2-18.047 8.784-26.924 4.275-4.538-2.323-3.658-2.03-44.953-43.326-14.636-14.636-4.109-39.626 16.414-39.626 6.2 0 12.03 2.414 16.414 6.799l39.05 39.05c9.049 9.051 9.049 23.778-.001 32.828z"/></g></svg>