<svg height="512" viewBox="-94 0 512 512.00002" xmlns="http://www.w3.org/2000/svg"><path d="m281.601562 0h-238.933593c-23.554688.0273438-42.6406252 19.113281-42.667969 42.667969v426.664062c.0273438 23.554688 19.113281 42.640625 42.667969 42.667969h238.933593c23.550782-.027344 42.636719-19.113281 42.664063-42.667969v-426.664062c-.027344-23.554688-19.113281-42.6406252-42.664063-42.667969zm-264.535156 85.332031h290.132813v341.335938h-290.132813zm25.601563-68.265625h238.933593c14.136719 0 25.597657 11.460938 25.597657 25.601563v25.597656h-290.132813v-25.597656c0-14.140625 11.460938-25.601563 25.601563-25.601563zm238.933593 477.867188h-238.933593c-14.140625 0-25.601563-11.460938-25.601563-25.601563v-25.597656h290.132813v25.597656c0 14.140625-11.460938 25.601563-25.597657 25.601563zm0 0"/><path d="m170.667969 460.800781h-17.066407c-4.714843 0-8.535156 3.820313-8.535156 8.53125 0 4.714844 3.820313 8.535157 8.535156 8.535157h17.066407c4.710937 0 8.53125-3.820313 8.53125-8.535157 0-4.710937-3.820313-8.53125-8.53125-8.53125zm0 0"/><path d="m51.199219 51.199219h17.066406c4.714844 0 8.535156-3.820313 8.535156-8.53125 0-4.714844-3.820312-8.535157-8.535156-8.535157h-17.066406c-4.710938 0-8.53125 3.820313-8.53125 8.535157 0 4.710937 3.820312 8.53125 8.53125 8.53125zm0 0"/><path d="m102.398438 51.199219h34.132812c4.714844 0 8.535156-3.820313 8.535156-8.53125 0-4.714844-3.820312-8.535157-8.535156-8.535157h-34.132812c-4.710938 0-8.53125 3.820313-8.53125 8.535157 0 4.710937 3.820312 8.53125 8.53125 8.53125zm0 0"/><path d="m76.800781 213.332031h34.132813c4.710937 0 8.53125-3.820312 8.53125-8.53125v-34.132812c0-4.714844-3.820313-8.535157-8.53125-8.535157h-34.132813c-4.714843 0-8.535156 3.820313-8.535156 8.535157v34.132812c0 4.710938 3.820313 8.53125 8.535156 8.53125zm8.53125-34.132812h17.066407v17.066406h-17.066407zm0 0"/><path d="m247.46875 162.132812h-34.136719c-4.710937 0-8.53125 3.820313-8.53125 8.535157v34.132812c0 4.710938 3.820313 8.53125 8.53125 8.53125h34.136719c4.710938 0 8.53125-3.820312 8.53125-8.53125v-34.132812c0-4.714844-3.820312-8.535157-8.53125-8.535157zm-8.535156 34.132813h-17.066406v-17.066406h17.066406zm0 0"/><path d="m110.933594 298.667969h-34.132813c-4.714843 0-8.535156 3.820312-8.535156 8.53125v34.132812c0 4.714844 3.820313 8.535157 8.535156 8.535157h34.132813c4.710937 0 8.53125-3.820313 8.53125-8.535157v-34.132812c.003906-4.710938-3.820313-8.53125-8.53125-8.53125zm-8.535156 34.132812h-17.066407v-17.066406h17.066407zm0 0"/><path d="m145.066406 179.199219h34.132813c4.714843 0 8.535156-3.820313 8.535156-8.53125 0-4.714844-3.820313-8.535157-8.535156-8.535157h-34.132813c-4.710937 0-8.53125 3.820313-8.53125 8.535157 0 4.710937 3.820313 8.53125 8.53125 8.53125zm0 0"/><path d="m76.800781 281.601562c4.710938 0 8.53125-3.820312 8.53125-8.535156v-17.066406h17.066407v8.535156c0 4.710938 3.820312 8.53125 8.535156 8.53125 4.710937 0 8.53125-3.820312 8.53125-8.53125v-8.535156h25.601562c4.714844 0 8.535156-3.820312 8.535156-8.53125 0-4.714844-3.820312-8.535156-8.535156-8.535156h-17.066406v-8.535156c0-4.710938-3.820312-8.53125-8.535156-8.53125-4.710938 0-8.53125 3.820312-8.53125 8.53125v8.535156h-25.601563c0-4.710938-3.820312-8.535156-8.53125-8.535156-4.714843 0-8.535156 3.824218-8.535156 8.535156v34.132812c0 4.714844 3.820313 8.535156 8.535156 8.535156zm0 0"/><path d="m247.46875 315.734375c-4.714844 0-8.535156 3.820313-8.535156 8.53125v8.535156h-8.535156c-4.710938 0-8.53125 3.820313-8.53125 8.53125 0 4.714844 3.820312 8.535157 8.53125 8.535157h17.070312c4.710938 0 8.53125-3.820313 8.53125-8.535157v-17.066406c0-4.710937-3.820312-8.53125-8.53125-8.53125zm0 0"/><path d="m196.265625 332.800781h-17.066406v-17.066406h8.535156c4.710937 0 8.53125-3.820313 8.53125-8.535156 0-4.710938-3.820313-8.53125-8.53125-8.53125h-8.535156v-8.535157c0-4.710937-3.820313-8.53125-8.53125-8.53125-4.714844 0-8.535157 3.820313-8.535157 8.53125h-8.53125c-4.714843 0-8.535156 3.820313-8.535156 8.535157 0 4.710937 3.820313 8.53125 8.535156 8.53125h8.53125v25.601562h-8.53125v-8.535156c0-4.710937-3.820312-8.53125-8.535156-8.53125-4.710937 0-8.53125 3.820313-8.53125 8.53125v17.066406c0 4.714844 3.820313 8.535157 8.53125 8.535157h51.199219c4.714844 0 8.535156-3.820313 8.535156-8.535157 0-4.710937-3.820312-8.53125-8.535156-8.53125zm0 0"/><path d="m247.46875 230.398438c-4.714844 0-8.535156 3.824218-8.535156 8.535156v51.199218c0 4.714844 3.820312 8.535157 8.535156 8.535157 4.710938 0 8.53125-3.820313 8.53125-8.535157v-51.199218c0-4.710938-3.820312-8.535156-8.53125-8.535156zm0 0"/><path d="m196.265625 256h8.535156v8.535156c0 4.710938 3.820313 8.53125 8.53125 8.53125 4.714844 0 8.535157-3.820312 8.535157-8.53125v-17.066406c0-4.714844-3.820313-8.535156-8.535157-8.535156v-8.535156c0-4.710938-3.820312-8.53125-8.53125-8.53125-4.714843 0-8.535156 3.820312-8.535156 8.53125v8.535156c-4.710937 0-8.53125 3.820312-8.53125 8.535156 0 4.710938 3.820313 8.53125 8.53125 8.53125zm0 0"/><path d="m145.066406 221.867188h17.066406c4.714844 0 8.535157-3.820313 8.535157-8.535157h8.53125c4.714843 0 8.535156-3.820312 8.535156-8.53125 0-4.714843-3.820313-8.535156-8.535156-8.535156h-8.53125c0-4.710937-3.820313-8.53125-8.535157-8.53125-4.710937 0-8.53125 3.820313-8.53125 8.53125v8.535156h-8.535156c-4.710937 0-8.53125 3.820313-8.53125 8.53125 0 4.714844 3.820313 8.535157 8.53125 8.535157zm0 0"/><path d="m153.601562 281.601562c0-4.714843-3.820312-8.535156-8.535156-8.535156h-17.066406c-4.710938 0-8.53125 3.820313-8.53125 8.535156 0 4.710938 3.820312 8.53125 8.53125 8.53125h17.066406c4.714844 0 8.535156-3.820312 8.535156-8.53125zm0 0"/><path d="m162.132812 247.46875v17.066406c0 4.710938 3.820313 8.53125 8.535157 8.53125 4.710937 0 8.53125-3.820312 8.53125-8.53125v-17.066406c0-4.714844-3.820313-8.535156-8.53125-8.535156-4.714844 0-8.535157 3.820312-8.535157 8.535156zm0 0"/><path d="m230.398438 315.734375v-17.066406c0-4.714844-3.820313-8.535157-8.53125-8.535157-4.714844 0-8.535157 3.820313-8.535157 8.535157v17.066406c0 4.710937 3.820313 8.53125 8.535157 8.53125 4.710937 0 8.53125-3.820313 8.53125-8.53125zm0 0"/><path d="m204.800781 273.066406h-17.066406c-4.714844 0-8.535156 3.820313-8.535156 8.535156 0 4.710938 3.820312 8.53125 8.535156 8.53125h17.066406c4.710938 0 8.53125-3.820312 8.53125-8.53125 0-4.714843-3.820312-8.535156-8.53125-8.535156zm0 0"/></svg>